<svg xmlns="http://www.w3.org/2000/svg" xmlns:xlink="http://www.w3.org/1999/xlink" version="1.1" class="marks" width="512" height="379" viewBox="0 0 512 379"><rect width="512" height="379" fill="white"/><g fill="none" stroke-miterlimit="10" transform="translate(57,12)"><g class="mark-group role-frame root" role="graphics-object" aria-roledescription="group mark container"><g transform="translate(0,0)"><path class="background" aria-hidden="true" d="M0.5,0.5h450v250h-450Z"/><g><g class="mark-group role-axis" aria-hidden="true"><g transform="translate(0.5,0.5)"><path class="background" aria-hidden="true" d="M0,0h0v0h0Z" pointer-events="none"/><g><g class="mark-rule role-axis-grid" pointer-events="none"><line transform="translate(0,250)" x2="450" y2="0" stroke="#ddd" stroke-width="1" opacity="1"/><line transform="translate(0,200)" x2="450" y2="0" stroke="#ddd" stroke-width="1" opacity="1"/><line transform="translate(0,150)" x2="450" y2="0" stroke="#ddd" stroke-width="1" opacity="1"/><line transform="translate(0,100)" x2="450" y2="0" stroke="#ddd" stroke-width="1" opacity="1"/><line transform="translate(0,50)" x2="450" y2="0" stroke="#ddd" stroke-width="1" opacity="1"/><line transform="translate(0,0)" x2="450" y2="0" stroke="#ddd" stroke-width="1" opacity="1"/></g></g><path class="foreground" aria-hidden="true" d="" pointer-events="none" display="none"/></g></g><g class="mark-group role-axis" role="graphics-symbol" aria-roledescription="axis" aria-label="X-axis titled 'Year' for a discrete scale with 5 values: 2017, 2018, 2019, 2020, 2021"><g transform="translate(0.5,250.5)"><path class="background" aria-hidden="true" d="M0,0h0v0h0Z" pointer-events="none"/><g><g class="mark-rule role-axis-tick" pointer-events="none"><line transform="translate(44,0)" x2="0" y2="5" stroke="#888" stroke-width="1" opacity="1"/><line transform="translate(134,0)" x2="0" y2="5" stroke="#888" stroke-width="1" opacity="1"/><line transform="translate(224,0)" x2="0" y2="5" stroke="#888" stroke-width="1" opacity="1"/><line transform="translate(315,0)" x2="0" y2="5" stroke="#888" stroke-width="1" opacity="1"/><line transform="translate(405,0)" x2="0" y2="5" stroke="#888" stroke-width="1" opacity="1"/></g><g class="mark-text role-axis-label" pointer-events="none"><text text-anchor="end" transform="translate(44.49999999999997,7) rotate(270) translate(0,5)" font-family="sans-serif" font-size="15px" fill="#000" opacity="1">2017</text><text text-anchor="end" transform="translate(134.49999999999997,7) rotate(270) translate(0,5)" font-family="sans-serif" font-size="15px" fill="#000" opacity="1">2018</text><text text-anchor="end" transform="translate(224.49999999999997,7) rotate(270) translate(0,5)" font-family="sans-serif" font-size="15px" fill="#000" opacity="1">2019</text><text text-anchor="end" transform="translate(314.5,7) rotate(270) translate(0,5)" font-family="sans-serif" font-size="15px" fill="#000" opacity="1">2020</text><text text-anchor="end" transform="translate(404.5,7) rotate(270) translate(0,5)" font-family="sans-serif" font-size="15px" fill="#000" opacity="1">2021</text></g><g class="mark-rule role-axis-domain" pointer-events="none"><line transform="translate(0,0)" x2="450" y2="0" stroke="#888" stroke-width="1" opacity="1"/></g><g class="mark-text role-axis-title" pointer-events="none"><text text-anchor="middle" transform="translate(225,56.369140625)" font-family="sans-serif" font-size="15px" font-weight="bold" fill="#000" opacity="1">Year</text></g></g><path class="foreground" aria-hidden="true" d="" pointer-events="none" display="none"/></g></g><g class="mark-group role-axis" role="graphics-symbol" aria-roledescription="axis" aria-label="Y-axis titled '% all domains' for a linear scale with values from 0 to 100"><g transform="translate(0.5,0.5)"><path class="background" aria-hidden="true" d="M0,0h0v0h0Z" pointer-events="none"/><g><g class="mark-rule role-axis-tick" pointer-events="none"><line transform="translate(0,250)" x2="-5" y2="0" stroke="#888" stroke-width="1" opacity="1"/><line transform="translate(0,200)" x2="-5" y2="0" stroke="#888" stroke-width="1" opacity="1"/><line transform="translate(0,150)" x2="-5" y2="0" stroke="#888" stroke-width="1" opacity="1"/><line transform="translate(0,100)" x2="-5" y2="0" stroke="#888" stroke-width="1" opacity="1"/><line transform="translate(0,50)" x2="-5" y2="0" stroke="#888" stroke-width="1" opacity="1"/><line transform="translate(0,0)" x2="-5" y2="0" stroke="#888" stroke-width="1" opacity="1"/></g><g class="mark-text role-axis-label" pointer-events="none"><text text-anchor="end" transform="translate(-7,255)" font-family="sans-serif" font-size="15px" fill="#000" opacity="1">0</text><text text-anchor="end" transform="translate(-7,205)" font-family="sans-serif" font-size="15px" fill="#000" opacity="1">20</text><text text-anchor="end" transform="translate(-7,155)" font-family="sans-serif" font-size="15px" fill="#000" opacity="1">40</text><text text-anchor="end" transform="translate(-7,105)" font-family="sans-serif" font-size="15px" fill="#000" opacity="1">60</text><text text-anchor="end" transform="translate(-7,54.999999999999986)" font-family="sans-serif" font-size="15px" fill="#000" opacity="1">80</text><text text-anchor="end" transform="translate(-7,5)" font-family="sans-serif" font-size="15px" fill="#000" opacity="1">100</text></g><g class="mark-rule role-axis-domain" pointer-events="none"><line transform="translate(0,250)" x2="0" y2="-250" stroke="#888" stroke-width="1" opacity="1"/></g><g class="mark-text role-axis-title" pointer-events="none"><text text-anchor="middle" transform="translate(-36.02685546875,125) rotate(-90) translate(0,-3)" font-family="sans-serif" font-size="15px" font-weight="bold" fill="#000" opacity="1">% all domains</text></g></g><path class="foreground" aria-hidden="true" d="" pointer-events="none" display="none"/></g></g><g class="mark-rect role-mark layer_0_marks" role="graphics-object" aria-roledescription="rect mark container"><path aria-label="Legend: Top 1 - 5; order: 1; Year: 2017; % all domains: 31" role="graphics-symbol" aria-roledescription="bar" d="M19.99999999999997,172.5h50v77.5h-50Z" fill="#96ceb4"/><path aria-label="Legend: Top 6 - 10; order: 2; Year: 2017; % all domains: 8" role="graphics-symbol" aria-roledescription="bar" d="M19.99999999999997,152.5h50v20h-50Z" fill="#ffcc5c"/><path aria-label="Legend: Top 11 - 20; order: 3; Year: 2017; % all domains: 11" role="graphics-symbol" aria-roledescription="bar" d="M19.99999999999997,125h50v27.5h-50Z" fill="#ff6f69"/><path aria-label="Legend: Top 21 - 100; order: 4; Year: 2017; % all domains: 27" role="graphics-symbol" aria-roledescription="bar" d="M19.99999999999997,57.49999999999999h50v67.5h-50Z" fill="#2a129b"/><path aria-label="Legend: Rest; order: 5; Year: 2017; % all domains: 23" role="graphics-symbol" aria-roledescription="bar" d="M19.99999999999997,0h50v57.49999999999999h-50Z" fill="#d3cfcf"/><path aria-label="Legend: Top 1 - 5; order: 1; Year: 2018; % all domains: 31" role="graphics-symbol" aria-roledescription="bar" d="M109.99999999999997,172.5h50v77.5h-50Z" fill="#96ceb4"/><path aria-label="Legend: Top 6 - 10; order: 2; Year: 2018; % all domains: 9" role="graphics-symbol" aria-roledescription="bar" d="M109.99999999999997,150h50v22.5h-50Z" fill="#ffcc5c"/><path aria-label="Legend: Top 11 - 20; order: 3; Year: 2018; % all domains: 10" role="graphics-symbol" aria-roledescription="bar" d="M109.99999999999997,125h50v25h-50Z" fill="#ff6f69"/><path aria-label="Legend: Top 21 - 100; order: 4; Year: 2018; % all domains: 29" role="graphics-symbol" aria-roledescription="bar" d="M109.99999999999997,52.49999999999999h50v72.5h-50Z" fill="#2a129b"/><path aria-label="Legend: Rest; order: 5; Year: 2018; % all domains: 21" role="graphics-symbol" aria-roledescription="bar" d="M109.99999999999997,0h50v52.49999999999999h-50Z" fill="#d3cfcf"/><path aria-label="Legend: Top 1 - 5; order: 1; Year: 2019; % all domains: 34" role="graphics-symbol" aria-roledescription="bar" d="M199.99999999999997,164.99999999999997h50v85.00000000000003h-50Z" fill="#96ceb4"/><path aria-label="Legend: Top 6 - 10; order: 2; Year: 2019; % all domains: 10" role="graphics-symbol" aria-roledescription="bar" d="M199.99999999999997,140h50v24.99999999999997h-50Z" fill="#ffcc5c"/><path aria-label="Legend: Top 11 - 20; order: 3; Year: 2019; % all domains: 10" role="graphics-symbol" aria-roledescription="bar" d="M199.99999999999997,114.99999999999999h50v25.000000000000014h-50Z" fill="#ff6f69"/><path aria-label="Legend: Top 21 - 100; order: 4; Year: 2019; % all domains: 27" role="graphics-symbol" aria-roledescription="bar" d="M199.99999999999997,47.499999999999986h50v67.5h-50Z" fill="#2a129b"/><path aria-label="Legend: Rest; order: 5; Year: 2019; % all domains: 19" role="graphics-symbol" aria-roledescription="bar" d="M199.99999999999997,0h50v47.499999999999986h-50Z" fill="#d3cfcf"/><path aria-label="Legend: Top 1 - 5; order: 1; Year: 2020; % all domains: 36" role="graphics-symbol" aria-roledescription="bar" d="M290,160h50v90h-50Z" fill="#96ceb4"/><path aria-label="Legend: Top 6 - 10; order: 2; Year: 2020; % all domains: 11" role="graphics-symbol" aria-roledescription="bar" d="M290,132.5h50v27.5h-50Z" fill="#ffcc5c"/><path aria-label="Legend: Top 11 - 20; order: 3; Year: 2020; % all domains: 13" role="graphics-symbol" aria-roledescription="bar" d="M290,100h50v32.5h-50Z" fill="#ff6f69"/><path aria-label="Legend: Top 21 - 100; order: 4; Year: 2020; % all domains: 23" role="graphics-symbol" aria-roledescription="bar" d="M290,42.50000000000001h50v57.49999999999999h-50Z" fill="#2a129b"/><path aria-label="Legend: Rest; order: 5; Year: 2020; % all domains: 17" role="graphics-symbol" aria-roledescription="bar" d="M290,0h50v42.50000000000001h-50Z" fill="#d3cfcf"/><path aria-label="Legend: Top 1 - 5; order: 1; Year: 2021; % all domains: 41" role="graphics-symbol" aria-roledescription="bar" d="M380,147.50000000000003h50v102.49999999999997h-50Z" fill="#96ceb4"/><path aria-label="Legend: Top 6 - 10; order: 2; Year: 2021; % all domains: 12" role="graphics-symbol" aria-roledescription="bar" d="M380,117.5h50v30.00000000000003h-50Z" fill="#ffcc5c"/><path aria-label="Legend: Top 11 - 20; order: 3; Year: 2021; % all domains: 11" role="graphics-symbol" aria-roledescription="bar" d="M380,90h50v27.5h-50Z" fill="#ff6f69"/><path aria-label="Legend: Top 21 - 100; order: 4; Year: 2021; % all domains: 21" role="graphics-symbol" aria-roledescription="bar" d="M380,37.50000000000001h50v52.49999999999999h-50Z" fill="#2a129b"/><path aria-label="Legend: Rest; order: 5; Year: 2021; % all domains: 15" role="graphics-symbol" aria-roledescription="bar" d="M380,0h50v37.50000000000001h-50Z" fill="#d3cfcf"/></g><g class="mark-group role-legend" role="graphics-symbol" aria-roledescription="legend" aria-label="Symbol legend titled 'Legend' for fill color with 5 values: Top 1 - 5, Top 6 - 10, Top 11 - 20, Top 21 - 100, Rest"><g transform="translate(0,328)"><path class="background" aria-hidden="true" d="M0,0h425v34h-425Z" pointer-events="none"/><g><g class="mark-group role-legend-entry"><g transform="translate(0,20)"><path class="background" aria-hidden="true" d="M0,0h0v0h0Z" pointer-events="none"/><g><g class="mark-group role-scope" role="graphics-object" aria-roledescription="group mark container"><g transform="translate(0,0)"><path class="background" aria-hidden="true" d="M0,0h72.4755859375v14h-72.4755859375Z" pointer-events="none" opacity="1"/><g><g class="mark-symbol role-legend-symbol" pointer-events="none"><path transform="translate(7,7)" d="M-5,-5h10v10h-10Z" fill="#96ceb4" stroke-width="1.5" opacity="1"/></g><g class="mark-text role-legend-label" pointer-events="none"><text text-anchor="start" transform="translate(18,11)" font-family="sans-serif" font-size="14px" fill="#000" opacity="1">Top 1 - 5</text></g></g><path class="foreground" aria-hidden="true" d="" pointer-events="none" display="none"/></g><g transform="translate(83,0)"><path class="background" aria-hidden="true" d="M0,0h80.26171875v14h-80.26171875Z" pointer-events="none" opacity="1"/><g><g class="mark-symbol role-legend-symbol" pointer-events="none"><path transform="translate(7,7)" d="M-5,-5h10v10h-10Z" fill="#ffcc5c" stroke-width="1.5" opacity="1"/></g><g class="mark-text role-legend-label" pointer-events="none"><text text-anchor="start" transform="translate(18,11)" font-family="sans-serif" font-size="14px" fill="#000" opacity="1">Top 6 - 10</text></g></g><path class="foreground" aria-hidden="true" d="" pointer-events="none" display="none"/></g><g transform="translate(174,0)"><path class="background" aria-hidden="true" d="M0,0h87.015625v14h-87.015625Z" pointer-events="none" opacity="1"/><g><g class="mark-symbol role-legend-symbol" pointer-events="none"><path transform="translate(7,7)" d="M-5,-5h10v10h-10Z" fill="#ff6f69" stroke-width="1.5" opacity="1"/></g><g class="mark-text role-legend-label" pointer-events="none"><text text-anchor="start" transform="translate(18,11)" font-family="sans-serif" font-size="14px" fill="#000" opacity="1">Top 11 - 20</text></g></g><path class="foreground" aria-hidden="true" d="" pointer-events="none" display="none"/></g><g transform="translate(272,0)"><path class="background" aria-hidden="true" d="M0,0h95.833984375v14h-95.833984375Z" pointer-events="none" opacity="1"/><g><g class="mark-symbol role-legend-symbol" pointer-events="none"><path transform="translate(7,7)" d="M-5,-5h10v10h-10Z" fill="#2a129b" stroke-width="1.5" opacity="1"/></g><g class="mark-text role-legend-label" pointer-events="none"><text text-anchor="start" transform="translate(18,11)" font-family="sans-serif" font-size="14px" fill="#000" opacity="1">Top 21 - 100</text></g></g><path class="foreground" aria-hidden="true" d="" pointer-events="none" display="none"/></g><g transform="translate(378,0)"><path class="background" aria-hidden="true" d="M0,0h46.7861328125v14h-46.7861328125Z" pointer-events="none" opacity="1"/><g><g class="mark-symbol role-legend-symbol" pointer-events="none"><path transform="translate(7,7)" d="M-5,-5h10v10h-10Z" fill="#d3cfcf" stroke-width="1.5" opacity="1"/></g><g class="mark-text role-legend-label" pointer-events="none"><text text-anchor="start" transform="translate(18,11)" font-family="sans-serif" font-size="14px" fill="#000" opacity="1">Rest</text></g></g><path class="foreground" aria-hidden="true" d="" pointer-events="none" display="none"/></g></g></g><path class="foreground" aria-hidden="true" d="" pointer-events="none" display="none"/></g></g><g class="mark-text role-legend-title" pointer-events="none"><text text-anchor="start" transform="translate(0,12)" font-family="sans-serif" font-size="15px" font-weight="bold" fill="#000" opacity="1">Legend</text></g></g><path class="foreground" aria-hidden="true" d="" pointer-events="none" display="none"/></g></g></g><path class="foreground" aria-hidden="true" d="" display="none"/></g></g></g></svg>